<svg width="57" height="40" viewBox="0 0 57 40" fill="none" xmlns="http://www.w3.org/2000/svg">
<path opacity="0.8" d="M20.48 14.1901H16.5432C18.3847 8.99056 19.9571 6.50049 25.1893 4.37465C26.0625 4.0197 26.5565 3.11357 26.3705 2.20918C26.1847 1.30653 25.3713 0.657135 24.4263 0.657135H24.4223C13.5069 0.676081 7.23689 4.94284 2.79093 15.372C1.3718 18.6477 0.651428 22.1535 0.651428 25.7898C0.651428 31.3821 2.38643 34.4274 5.03156 38.4355C5.39561 38.9886 6.02497 39.3228 6.69875 39.3228H20.48C23.7602 39.3228 26.4286 36.7212 26.4286 33.523V19.99C26.4286 16.7918 23.7602 14.1901 20.48 14.1901ZM50.2229 14.1901H46.2861C48.1276 8.99056 49.7 6.50049 54.9321 4.37465C55.8054 4.0197 56.2993 3.11357 56.1133 2.20918C55.9275 1.30653 55.1142 0.657135 54.1691 0.657135H54.1652C43.2497 0.676081 36.9798 4.94284 32.5338 15.372C31.1147 18.6477 30.3943 22.1535 30.3943 25.7898C30.3943 31.3821 32.1293 34.4274 34.7744 38.4355C35.1385 38.9886 35.7678 39.3228 36.4416 39.3228H50.2229C53.5031 39.3228 56.1714 36.7212 56.1714 33.523V19.99C56.1714 16.7918 53.5031 14.1901 50.2229 14.1901Z" fill="#58BD7D"/>
</svg>
