<svg width="55" height="55" viewBox="0 0 55 55" fill="none" xmlns="http://www.w3.org/2000/svg">
<rect x="2" y="2" width="51" height="51" rx="9" fill="white"/>
<rect width="55" height="55" rx="9.70588" fill="white" fill-opacity="0.5"/>
<path d="M20.18 23.3454L20.7442 22.7812L20.18 23.3454ZM18.1278 21.2933L17.5636 21.8575L18.1278 21.2933ZM26.639 36.4538C26.1983 36.4538 25.841 36.811 25.841 37.2517C25.841 37.6924 26.1983 38.0496 26.639 38.0496V36.4538ZM37.3259 35.0589L36.6804 34.5899L37.3259 35.0589ZM36.1491 36.2358L35.6801 35.5902L36.1491 36.2358ZM36.1491 19.1175L36.6181 18.472L36.6181 18.472L36.1491 19.1175ZM37.3259 20.2943L36.6804 20.7633V20.7633L37.3259 20.2943ZM19.2567 19.1175L18.7877 18.472L18.7877 18.472L19.2567 19.1175ZM16.266 27.6766C16.266 28.1173 16.6232 28.4746 17.0639 28.4746C17.5046 28.4746 17.8618 28.1173 17.8618 27.6766H16.266ZM18.0798 20.2943L17.4343 19.8253H17.4343L18.0798 20.2943ZM16 34.326C15.5593 34.326 15.2021 34.6832 15.2021 35.1239C15.2021 35.5646 15.5593 35.9218 16 35.9218V34.326ZM22.3834 35.9218C22.8241 35.9218 23.1813 35.5646 23.1813 35.1239C23.1813 34.6832 22.8241 34.326 22.3834 34.326V35.9218ZM16 31.1343C15.5593 31.1343 15.2021 31.4915 15.2021 31.9322C15.2021 32.3729 15.5593 32.7301 16 32.7301V31.1343ZM19.1917 32.7301C19.6324 32.7301 19.9896 32.3729 19.9896 31.9322C19.9896 31.4915 19.6324 31.1343 19.1917 31.1343V32.7301ZM17.7246 20.8901L17.0058 20.5437L17.7246 20.8901ZM20.7442 22.7812L18.8211 20.8581L17.6927 21.9865L19.6158 23.9097L20.7442 22.7812ZM36.5846 20.8581L34.6615 22.7812L35.79 23.9097L37.7131 21.9865L36.5846 20.8581ZM19.6158 23.9097C21.373 25.6669 22.7464 27.0427 23.961 27.9694C25.194 28.9101 26.3566 29.4628 27.7029 29.4628V27.867C26.8458 27.867 26.02 27.5331 24.929 26.7007C23.8196 25.8542 22.5333 24.5703 20.7442 22.7812L19.6158 23.9097ZM34.6615 22.7812C32.8724 24.5703 31.5861 25.8542 30.4767 26.7007C29.3857 27.5331 28.56 27.867 27.7029 27.867V29.4628C29.0492 29.4628 30.2117 28.9101 31.4447 27.9694C32.6593 27.0427 34.0328 25.6669 35.79 23.9097L34.6615 22.7812ZM20.7442 22.7812L18.692 20.729L17.5636 21.8575L19.6158 23.9097L20.7442 22.7812ZM36.7137 20.729L34.6615 22.7812L35.79 23.9097L37.8421 21.8575L36.7137 20.729ZM26.639 18.8995H28.7668V17.3036H26.639V18.8995ZM28.7668 36.4538H26.639V38.0496H28.7668V36.4538ZM37.5439 27.6766C37.5439 29.6891 37.5428 31.1343 37.4216 32.2535C37.3019 33.3577 37.073 34.0495 36.6804 34.5899L37.9714 35.5279C38.5947 34.6701 38.8738 33.6654 39.0081 32.4254C39.1408 31.2003 39.1397 29.6535 39.1397 27.6766H37.5439ZM28.7668 38.0496C30.7436 38.0496 32.2904 38.0507 33.5155 37.918C34.7555 37.7836 35.7602 37.5046 36.6181 36.8813L35.6801 35.5902C35.1396 35.9829 34.4478 36.2118 33.3436 36.3314C32.2244 36.4527 30.7792 36.4538 28.7668 36.4538V38.0496ZM36.6804 34.5899C36.4015 34.9738 36.0639 35.3113 35.6801 35.5902L36.6181 36.8813C37.1374 36.504 37.5941 36.0473 37.9714 35.5279L36.6804 34.5899ZM28.7668 18.8995C30.7792 18.8995 32.2244 18.9006 33.3436 19.0218C34.4478 19.1415 35.1396 19.3704 35.6801 19.763L36.6181 18.472C35.7602 17.8487 34.7555 17.5696 33.5155 17.4353C32.2904 17.3025 30.7436 17.3036 28.7668 17.3036V18.8995ZM35.6801 19.763C36.0639 20.0419 36.4015 20.3795 36.6804 20.7633L37.9714 19.8253C37.5941 19.306 37.1374 18.8493 36.6181 18.472L35.6801 19.763ZM26.639 17.3036C24.6621 17.3036 23.1153 17.3025 21.8902 17.4353C20.6502 17.5696 19.6455 17.8487 18.7877 18.472L19.7257 19.763C20.2661 19.3704 20.9579 19.1415 22.0621 19.0218C23.1813 18.9006 24.6265 18.8995 26.639 18.8995V17.3036ZM18.7877 18.472C18.2683 18.8493 17.8116 19.306 17.4343 19.8253L18.7254 20.7633C19.0042 20.3795 19.3418 20.0419 19.7257 19.763L18.7877 18.472ZM16 35.9218H22.3834V34.326H16V35.9218ZM16 32.7301H19.1917V31.1343H16V32.7301ZM17.8618 27.6766C17.8618 25.937 17.8623 24.6179 17.9421 23.5615C18.0218 22.5071 18.1766 21.7902 18.4434 21.2364L17.0058 20.5437C16.6119 21.3611 16.4363 22.3093 16.3508 23.4413C16.2655 24.5714 16.266 25.96 16.266 27.6766H17.8618ZM18.4434 21.2364C18.5251 21.0669 18.6184 20.9106 18.7254 20.7633L17.4343 19.8253C17.2698 20.0517 17.1279 20.2904 17.0058 20.5437L18.4434 21.2364ZM18.692 20.729L18.2888 20.3259L17.1604 21.4543L17.5636 21.8575L18.692 20.729ZM39.1397 27.6766C39.1397 25.96 39.1403 24.5714 39.0549 23.4413C38.9694 22.3093 38.7938 21.3611 38.3999 20.5437L36.9623 21.2364C37.2291 21.7902 37.3839 22.5071 37.4636 23.5615C37.5434 24.6179 37.5439 25.937 37.5439 27.6766H39.1397ZM38.3999 20.5437C38.2779 20.2904 38.1359 20.0517 37.9714 19.8253L36.6804 20.7633C36.7873 20.9106 36.8806 21.0669 36.9623 21.2364L38.3999 20.5437ZM37.8421 21.8575L38.2453 21.4543L37.1169 20.3258L36.7137 20.729L37.8421 21.8575Z" fill="#58BD7D"/>
</svg>
