<svg width="52" height="52" viewBox="0 0 52 52" fill="none" xmlns="http://www.w3.org/2000/svg">
<path d="M43.9434 0H8.66035C4.23165 0 0.641479 3.59017 0.641479 8.01887V43.3019C0.641479 47.7306 4.23165 51.3208 8.66035 51.3208H43.9434C48.3721 51.3208 51.9622 47.7306 51.9622 43.3019V8.01887C51.9622 3.59017 48.3721 0 43.9434 0Z" fill="white"/>
<path d="M26.3019 14.7545C29.8302 14.7545 30.3114 14.7545 31.7548 14.7545C33.0378 14.7545 33.6793 15.0753 34.1604 15.2357C34.8019 15.5564 35.2831 15.7168 35.7642 16.1979C36.2453 16.6791 36.5661 17.1602 36.7265 17.8017C36.8868 18.2828 37.0472 18.9244 37.2076 20.2074C37.2076 21.6508 37.2076 21.9715 37.2076 25.6602C37.2076 29.3489 37.2076 29.6696 37.2076 31.113C37.2076 32.3961 36.8868 33.0376 36.7265 33.5187C36.4057 34.1602 36.2453 34.6413 35.7642 35.1225C35.2831 35.6036 34.8019 35.9244 34.1604 36.0847C33.6793 36.2451 33.0378 36.4055 31.7548 36.5659C30.3114 36.5659 29.9906 36.5659 26.3019 36.5659C22.6132 36.5659 22.2925 36.5659 20.8491 36.5659C19.5661 36.5659 18.9246 36.2451 18.4434 36.0847C17.8019 35.764 17.3208 35.6036 16.8397 35.1225C16.3585 34.6413 16.0378 34.1602 15.8774 33.5187C15.717 33.0376 15.5566 32.3961 15.3963 31.113C15.3963 29.6696 15.3963 29.3489 15.3963 25.6602C15.3963 21.9715 15.3963 21.6508 15.3963 20.2074C15.3963 18.9244 15.717 18.2828 15.8774 17.8017C16.1981 17.1602 16.3585 16.6791 16.8397 16.1979C17.3208 15.7168 17.8019 15.396 18.4434 15.2357C18.9246 15.0753 19.5661 14.9149 20.8491 14.7545C22.2925 14.7545 22.7736 14.7545 26.3019 14.7545ZM26.3019 12.3489C22.6132 12.3489 22.2925 12.3489 20.8491 12.3489C19.4057 12.3489 18.4434 12.6696 17.6415 12.9904C16.8397 13.3111 16.0378 13.7923 15.2359 14.5942C14.434 15.396 14.1132 16.0376 13.6321 16.9998C13.3114 17.8017 13.151 18.764 12.9906 20.2074C12.9906 21.6508 12.9906 22.1319 12.9906 25.6602C12.9906 29.3489 12.9906 29.6696 12.9906 31.113C12.9906 32.5564 13.3114 33.5187 13.6321 34.3206C13.9529 35.1225 14.434 35.9244 15.2359 36.7262C16.0378 37.5281 16.6793 37.8489 17.6415 38.33C18.4434 38.6508 19.4057 38.8111 20.8491 38.9715C22.2925 38.9715 22.7736 38.9715 26.3019 38.9715C29.8302 38.9715 30.3114 38.9715 31.7548 38.9715C33.1982 38.9715 34.1604 38.6508 34.9623 38.33C35.7642 38.0093 36.5661 37.5281 37.368 36.7262C38.1699 35.9244 38.4906 35.2828 38.9717 34.3206C39.2925 33.5187 39.4529 32.5564 39.6132 31.113C39.6132 29.6696 39.6132 29.1885 39.6132 25.6602C39.6132 22.1319 39.6132 21.6508 39.6132 20.2074C39.6132 18.764 39.2925 17.8017 38.9717 16.9998C38.651 16.1979 38.1699 15.396 37.368 14.5942C36.5661 13.7923 35.9246 13.4715 34.9623 12.9904C34.1604 12.6696 33.1982 12.5093 31.7548 12.3489C30.3114 12.3489 29.9906 12.3489 26.3019 12.3489Z" fill="#58BD7D"/>
<path d="M26.3019 18.764C22.4529 18.764 19.4057 21.8111 19.4057 25.6602C19.4057 29.5093 22.4529 32.5564 26.3019 32.5564C30.151 32.5564 33.1982 29.5093 33.1982 25.6602C33.1982 21.8111 30.151 18.764 26.3019 18.764ZM26.3019 30.1508C23.8963 30.1508 21.8114 28.2262 21.8114 25.6602C21.8114 23.2545 23.7359 21.1696 26.3019 21.1696C28.7076 21.1696 30.7925 23.0942 30.7925 25.6602C30.7925 28.0659 28.7076 30.1508 26.3019 30.1508Z" fill="#58BD7D"/>
<path d="M33.3585 20.2074C34.2443 20.2074 34.9623 19.4893 34.9623 18.6036C34.9623 17.7179 34.2443 16.9998 33.3585 16.9998C32.4728 16.9998 31.7548 17.7179 31.7548 18.6036C31.7548 19.4893 32.4728 20.2074 33.3585 20.2074Z" fill="#58BD7D"/>
</svg>
