<svg width="55" height="55" viewBox="0 0 55 55" fill="none" xmlns="http://www.w3.org/2000/svg">
<rect x="2" y="2" width="51" height="51" rx="9" fill="white"/>
<rect width="55" height="55" rx="9.70588" fill="white" fill-opacity="0.5"/>
<path d="M27.4803 14.8721C30.1103 14.8721 32.6327 15.8984 34.4921 17.7246C36.3514 19.5508 37.3954 22.0273 37.3954 24.6094C37.3954 28.0858 35.755 31.7763 32.6512 35.2822C31.8241 36.2149 30.9383 37.0961 29.9989 37.9199L29.8934 38.0127H35.6366C35.8631 38.0128 36.0802 38.1008 36.2401 38.2578C36.4 38.4149 36.4891 38.6279 36.4891 38.8496C36.4891 39.0713 36.4 39.2844 36.2401 39.4414C36.0802 39.5984 35.863 39.6864 35.6366 39.6865H19.3251C19.0986 39.6865 18.8815 39.5983 18.7216 39.4414C18.5617 39.2844 18.4716 39.0713 18.4716 38.8496C18.4716 38.6279 18.5616 38.4149 18.7216 38.2578C18.8815 38.1008 19.0985 38.0127 19.3251 38.0127H25.0682L24.9618 37.9199C24.0224 37.0961 23.1367 36.2149 22.3094 35.2822C19.2012 31.7764 17.5653 28.0858 17.5653 24.6094C17.5653 22.0272 18.6102 19.5508 20.4696 17.7246C22.3289 15.8986 24.8505 14.8721 27.4803 14.8721ZM27.4803 16.5469C25.3037 16.5469 23.216 17.3963 21.6766 18.9082C20.1373 20.4202 19.2723 22.4708 19.2723 24.6094C19.2723 27.8098 20.851 30.7414 22.6591 33.0508C24.4675 35.3606 26.51 37.0537 27.4481 37.7783L27.4803 37.8037L27.5126 37.7783C28.4505 37.0538 30.494 35.3609 32.3026 33.0508C34.1106 30.7415 35.6893 27.8097 35.6893 24.6094C35.6893 22.4709 34.8242 20.4202 33.285 18.9082C31.7456 17.3962 29.6571 16.5469 27.4803 16.5469ZM26.6063 20.2969C27.475 20.1272 28.3759 20.2141 29.1942 20.5469C30.0126 20.8798 30.712 21.4439 31.204 22.167C31.6959 22.8901 31.9589 23.7399 31.9589 24.6094C31.9589 25.7753 31.487 26.894 30.6473 27.7188C29.8076 28.5433 28.6682 29.0068 27.4803 29.0068C26.5945 29.0068 25.7284 28.7489 24.9921 28.2656C24.2557 27.7824 23.6825 27.0952 23.3436 26.292C23.0048 25.4887 22.9161 24.6047 23.0887 23.752C23.2615 22.8992 23.6872 22.115 24.3134 21.5C24.9394 20.8851 25.7377 20.4667 26.6063 20.2969ZM28.0214 21.9385C27.4841 21.8335 26.927 21.8879 26.4208 22.0938C25.9145 22.2997 25.4813 22.6489 25.1766 23.0967C24.8721 23.5444 24.7089 24.0707 24.7089 24.6094C24.7089 25.3318 25.0015 26.0246 25.5214 26.5352C26.0411 27.0456 26.7458 27.332 27.4803 27.332C28.0283 27.332 28.5647 27.1731 29.0204 26.874C29.4761 26.575 29.831 26.149 30.0409 25.6514C30.2507 25.1538 30.306 24.6063 30.1991 24.0781C30.0921 23.5498 29.8279 23.0643 29.4403 22.6836C29.0527 22.3029 28.5587 22.0435 28.0214 21.9385Z" fill="#58BD7D" stroke="#58BD7D" stroke-width="0.105688"/>
</svg>
