<svg width="52" height="52" viewBox="0 0 52 52" fill="none" xmlns="http://www.w3.org/2000/svg">
<path d="M43.6226 0H8.33961C3.91091 0 0.32074 3.59017 0.32074 8.01887V43.3019C0.32074 47.7306 3.91091 51.3208 8.33961 51.3208H43.6226C48.0513 51.3208 51.6415 47.7306 51.6415 43.3019V8.01887C51.6415 3.59017 48.0513 0 43.6226 0Z" fill="white"/>
<path d="M18.9245 38.4903H13.4717V21.33H18.9245V38.4903ZM16.1981 18.9243C14.434 18.9243 13.1509 17.6413 13.1509 15.8771C13.1509 14.113 14.5943 12.83 16.1981 12.83C17.9623 12.83 19.2453 14.113 19.2453 15.8771C19.2453 17.6413 17.9623 18.9243 16.1981 18.9243ZM38.8113 38.4903H33.3585V29.1884C33.3585 26.462 32.2358 25.6601 30.6321 25.6601C29.0283 25.6601 27.4245 26.9432 27.4245 29.3488V38.4903H21.9717V21.33H27.1038V23.7356C27.5849 22.613 29.5094 20.8488 32.2358 20.8488C35.283 20.8488 38.4906 22.613 38.4906 27.9054V38.4903H38.8113Z" fill="#58BD7D"/>
</svg>
