<svg width="55" height="55" viewBox="0 0 55 55" fill="none" xmlns="http://www.w3.org/2000/svg">
<rect x="2" y="2" width="51" height="51" rx="9" fill="white"/>
<rect width="55" height="55" rx="9.70588" fill="white" fill-opacity="0.5"/>
<path d="M34.0295 26.6869V26.087C34.0295 25.9973 34.0295 25.9524 34.029 25.9144C33.9879 23.0455 31.6722 20.7298 28.8033 20.6887C28.7653 20.6882 28.7204 20.6882 28.6307 20.6882H28.0308M37.7789 27.4367V26.387C37.7789 25.4913 37.7789 25.0434 37.7451 24.6659C37.3791 20.5783 34.1395 17.3387 30.0519 16.9728C29.6744 16.939 29.2265 16.939 28.3309 16.939L27.2811 16.939M23.8641 24.5989C23.3835 25.7015 23.6267 26.986 24.4772 27.8365L27.0189 30.3781C27.8694 31.2287 29.1539 31.4719 30.2565 30.9913C31.3591 30.5107 32.6436 30.7539 33.4941 31.6044L35.0404 33.1508C35.1153 33.2257 35.1528 33.2631 35.1831 33.2961C35.9287 34.1075 35.9287 35.3547 35.1831 36.1661C35.1528 36.1991 35.1153 36.2366 35.0404 36.3115L34.1005 37.2514C33.3351 38.0168 32.2317 38.3381 31.175 38.1033C23.9751 36.5033 18.3521 30.8803 16.7521 23.6804C16.5173 22.6237 16.8386 21.5203 17.604 20.7549L18.5439 19.815C18.6188 19.7401 18.6563 19.7026 18.6893 19.6723C19.5007 18.9267 20.7479 18.9267 21.5593 19.6723C21.5923 19.7026 21.6297 19.7401 21.7046 19.815L23.251 21.3613C24.1015 22.2118 24.3447 23.4963 23.8641 24.5989Z" stroke="#58BD7D" stroke-width="1.59065" stroke-linecap="round"/>
</svg>
