<svg width="331" height="330" viewBox="0 0 331 330" fill="none" xmlns="http://www.w3.org/2000/svg">
<g filter="url(#filter0_d_126_816)">
<path fill-rule="evenodd" clip-rule="evenodd" d="M247.893 230.805C202.112 230.805 165 193.912 165 148.402C165 102.893 202.112 66 247.893 66C293.673 66 330.786 102.893 330.786 148.402C330.786 193.912 293.673 230.805 247.893 230.805ZM247.893 72.5922C205.775 72.5922 171.631 106.534 171.631 148.402C171.631 190.271 205.775 224.213 247.893 224.213C290.011 224.213 324.154 190.271 324.154 148.402C324.154 106.534 290.011 72.5922 247.893 72.5922Z" fill="white"/>
</g>
<g filter="url(#filter1_d_126_816)">
<path d="M171.631 148.403C171.631 106.534 205.774 72.5925 247.892 72.5925C290.01 72.5925 324.154 106.534 324.154 148.403C324.154 190.272 290.01 224.213 247.892 224.213C205.774 224.213 171.631 190.272 171.631 148.403Z" fill="url(#paint0_linear_126_816)"/>
</g>
<path d="M210.78 138.739V114.093H217.738V138.739H210.78ZM202.107 129.626V123.256H226.459V129.626H202.107ZM237.469 143.296V112.82L239.625 114.485H230.462V107.528H245.456V143.296H237.469ZM268.52 144.227C265.679 144.227 263.245 143.77 261.22 142.855C259.195 141.908 257.545 140.634 256.271 139.033C255.03 137.433 254.099 135.587 253.478 133.497C252.89 131.373 252.596 129.136 252.596 126.784V123.991C252.596 120.724 253.168 117.768 254.311 115.122C255.454 112.477 257.202 110.37 259.554 108.802C261.906 107.234 264.895 106.45 268.52 106.45C272.146 106.45 275.119 107.234 277.438 108.802C279.79 110.37 281.537 112.477 282.681 115.122C283.824 117.768 284.396 120.724 284.396 123.991V126.784C284.396 129.136 284.085 131.373 283.465 133.497C282.877 135.587 281.946 137.433 280.672 139.033C279.431 140.634 277.797 141.908 275.772 142.855C273.78 143.77 271.362 144.227 268.52 144.227ZM268.52 136.828C271.166 136.828 273.126 135.914 274.4 134.084C275.707 132.223 276.36 129.348 276.36 125.461C276.36 121.345 275.69 118.389 274.351 116.592C273.045 114.763 271.101 113.848 268.52 113.848C265.875 113.848 263.898 114.763 262.592 116.592C261.285 118.389 260.632 121.312 260.632 125.363C260.632 129.283 261.269 132.174 262.543 134.035C263.849 135.897 265.842 136.828 268.52 136.828Z" fill="white"/>
<path d="M222.87 165.14H218.57L217.88 167.176H214.942L219.111 155.653H222.361L226.531 167.176H223.56L222.87 165.14ZM222.148 162.974L220.72 158.755L219.308 162.974H222.148ZM233.38 157.918C234.453 157.918 235.306 158.268 235.941 158.969C236.587 159.658 236.91 160.61 236.91 161.825V167.176H234.119V162.202C234.119 161.589 233.96 161.113 233.643 160.774C233.326 160.435 232.899 160.265 232.363 160.265C231.827 160.265 231.4 160.435 231.082 160.774C230.765 161.113 230.606 161.589 230.606 162.202V167.176H227.8V158.017H230.606V159.231C230.891 158.826 231.274 158.509 231.755 158.279C232.237 158.038 232.779 157.918 233.38 157.918ZM244.441 157.918C245.513 157.918 246.367 158.268 247.002 158.969C247.647 159.658 247.97 160.61 247.97 161.825V167.176H245.18V162.202C245.18 161.589 245.021 161.113 244.704 160.774C244.386 160.435 243.959 160.265 243.423 160.265C242.887 160.265 242.46 160.435 242.143 160.774C241.826 161.113 241.667 161.589 241.667 162.202V167.176H238.86V158.017H241.667V159.231C241.951 158.826 242.334 158.509 242.816 158.279C243.297 158.038 243.839 157.918 244.441 157.918ZM258.555 162.448C258.555 162.711 258.538 162.985 258.505 163.269H252.153C252.197 163.838 252.377 164.276 252.695 164.582C253.023 164.878 253.422 165.025 253.893 165.025C254.593 165.025 255.08 164.73 255.354 164.139H258.341C258.188 164.741 257.909 165.283 257.504 165.764C257.11 166.246 256.612 166.623 256.01 166.897C255.408 167.17 254.735 167.307 253.991 167.307C253.094 167.307 252.295 167.116 251.595 166.733C250.894 166.35 250.347 165.802 249.953 165.091C249.559 164.38 249.362 163.548 249.362 162.596C249.362 161.644 249.554 160.812 249.937 160.101C250.331 159.39 250.878 158.843 251.578 158.46C252.279 158.077 253.083 157.885 253.991 157.885C254.878 157.885 255.666 158.071 256.355 158.443C257.044 158.815 257.581 159.346 257.964 160.036C258.358 160.725 258.555 161.529 258.555 162.448ZM255.682 161.71C255.682 161.228 255.518 160.845 255.19 160.561C254.861 160.276 254.451 160.134 253.959 160.134C253.488 160.134 253.089 160.271 252.76 160.544C252.443 160.818 252.246 161.206 252.169 161.71H255.682ZM255.879 155.669L251.923 157.327V155.39L255.879 153.486V155.669ZM268.669 162.448C268.669 162.711 268.653 162.985 268.62 163.269H262.268C262.311 163.838 262.492 164.276 262.809 164.582C263.138 164.878 263.537 165.025 264.008 165.025C264.708 165.025 265.195 164.73 265.468 164.139H268.456C268.303 164.741 268.024 165.283 267.619 165.764C267.225 166.246 266.727 166.623 266.125 166.897C265.523 167.17 264.85 167.307 264.106 167.307C263.209 167.307 262.41 167.116 261.71 166.733C261.009 166.35 260.462 165.802 260.068 165.091C259.674 164.38 259.477 163.548 259.477 162.596C259.477 161.644 259.669 160.812 260.052 160.101C260.446 159.39 260.993 158.843 261.693 158.46C262.394 158.077 263.198 157.885 264.106 157.885C264.992 157.885 265.78 158.071 266.47 158.443C267.159 158.815 267.695 159.346 268.078 160.036C268.472 160.725 268.669 161.529 268.669 162.448ZM265.797 161.71C265.797 161.228 265.633 160.845 265.304 160.561C264.976 160.276 264.566 160.134 264.073 160.134C263.603 160.134 263.203 160.271 262.875 160.544C262.558 160.818 262.361 161.206 262.284 161.71H265.797ZM273.876 167.307C273.077 167.307 272.366 167.17 271.742 166.897C271.119 166.623 270.626 166.251 270.265 165.781C269.904 165.299 269.701 164.763 269.658 164.172H272.432C272.465 164.489 272.612 164.746 272.875 164.943C273.137 165.14 273.46 165.239 273.843 165.239C274.193 165.239 274.462 165.173 274.648 165.042C274.845 164.9 274.943 164.719 274.943 164.5C274.943 164.238 274.806 164.046 274.533 163.926C274.259 163.794 273.816 163.652 273.203 163.499C272.547 163.346 271.999 163.187 271.562 163.023C271.124 162.848 270.746 162.58 270.429 162.219C270.112 161.847 269.953 161.349 269.953 160.725C269.953 160.2 270.095 159.724 270.38 159.297C270.675 158.859 271.102 158.514 271.66 158.263C272.229 158.011 272.902 157.885 273.679 157.885C274.828 157.885 275.731 158.17 276.388 158.739C277.055 159.308 277.438 160.063 277.537 161.004H274.943C274.899 160.687 274.757 160.435 274.516 160.249C274.287 160.063 273.98 159.97 273.597 159.97C273.269 159.97 273.017 160.036 272.842 160.167C272.667 160.287 272.579 160.457 272.579 160.676C272.579 160.938 272.716 161.135 272.99 161.267C273.274 161.398 273.712 161.529 274.303 161.661C274.981 161.836 275.534 162.011 275.961 162.186C276.388 162.35 276.76 162.624 277.077 163.007C277.405 163.379 277.575 163.882 277.586 164.517C277.586 165.053 277.433 165.534 277.126 165.961C276.831 166.377 276.398 166.705 275.829 166.946C275.271 167.187 274.62 167.307 273.876 167.307ZM196.987 173.653C198.202 173.653 199.264 173.894 200.172 174.375C201.08 174.857 201.78 175.535 202.273 176.41C202.776 177.275 203.028 178.276 203.028 179.414C203.028 180.541 202.776 181.543 202.273 182.418C201.78 183.294 201.075 183.972 200.155 184.454C199.247 184.935 198.191 185.176 196.987 185.176H192.67V173.653H196.987ZM196.807 182.746C197.868 182.746 198.695 182.456 199.285 181.876C199.876 181.297 200.172 180.476 200.172 179.414C200.172 178.353 199.876 177.527 199.285 176.936C198.695 176.345 197.868 176.049 196.807 176.049H195.477V182.746H196.807ZM206.55 172.044L206.336 175.672H204.449L204.235 172.044H206.55ZM216.853 180.448C216.853 180.711 216.837 180.985 216.804 181.269H210.452C210.495 181.838 210.676 182.276 210.993 182.582C211.322 182.878 211.721 183.025 212.192 183.025C212.892 183.025 213.379 182.73 213.652 182.139H216.64C216.487 182.741 216.208 183.283 215.803 183.764C215.409 184.246 214.911 184.623 214.309 184.897C213.707 185.17 213.034 185.307 212.29 185.307C211.393 185.307 210.594 185.116 209.894 184.733C209.193 184.35 208.646 183.802 208.252 183.091C207.858 182.38 207.661 181.548 207.661 180.596C207.661 179.644 207.853 178.812 208.236 178.101C208.63 177.39 209.177 176.843 209.877 176.46C210.577 176.077 211.382 175.885 212.29 175.885C213.176 175.885 213.964 176.071 214.654 176.443C215.343 176.815 215.879 177.346 216.262 178.036C216.656 178.725 216.853 179.529 216.853 180.448ZM213.981 179.71C213.981 179.228 213.817 178.845 213.488 178.561C213.16 178.276 212.75 178.134 212.257 178.134C211.787 178.134 211.387 178.271 211.059 178.544C210.742 178.818 210.545 179.206 210.468 179.71H213.981ZM223.751 185.176L221.994 182.632L220.517 185.176H217.48L220.501 180.498L217.398 176.017H220.55L222.306 178.544L223.784 176.017H226.82L223.751 180.629L226.902 185.176H223.751ZM230.791 177.313C231.064 176.886 231.442 176.542 231.923 176.279C232.405 176.017 232.968 175.885 233.614 175.885C234.369 175.885 235.053 176.077 235.666 176.46C236.279 176.843 236.76 177.39 237.11 178.101C237.471 178.812 237.652 179.639 237.652 180.58C237.652 181.521 237.471 182.352 237.11 183.075C236.76 183.786 236.279 184.339 235.666 184.733C235.053 185.116 234.369 185.307 233.614 185.307C232.979 185.307 232.416 185.176 231.923 184.913C231.442 184.651 231.064 184.311 230.791 183.895V189.542H227.984V176.017H230.791V177.313ZM234.796 180.58C234.796 179.879 234.599 179.332 234.205 178.938C233.822 178.533 233.346 178.331 232.777 178.331C232.219 178.331 231.743 178.533 231.349 178.938C230.966 179.343 230.774 179.896 230.774 180.596C230.774 181.297 230.966 181.849 231.349 182.254C231.743 182.659 232.219 182.861 232.777 182.861C233.335 182.861 233.811 182.659 234.205 182.254C234.599 181.838 234.796 181.28 234.796 180.58ZM247.759 180.448C247.759 180.711 247.742 180.985 247.709 181.269H241.357C241.401 181.838 241.581 182.276 241.899 182.582C242.227 182.878 242.626 183.025 243.097 183.025C243.797 183.025 244.284 182.73 244.558 182.139H247.545C247.392 182.741 247.113 183.283 246.708 183.764C246.314 184.246 245.816 184.623 245.214 184.897C244.612 185.17 243.939 185.307 243.195 185.307C242.298 185.307 241.499 185.116 240.799 184.733C240.098 184.35 239.551 183.802 239.157 183.091C238.763 182.38 238.566 181.548 238.566 180.596C238.566 179.644 238.758 178.812 239.141 178.101C239.535 177.39 240.082 176.843 240.782 176.46C241.483 176.077 242.287 175.885 243.195 175.885C244.082 175.885 244.87 176.071 245.559 176.443C246.248 176.815 246.785 177.346 247.168 178.036C247.562 178.725 247.759 179.529 247.759 180.448ZM244.886 179.71C244.886 179.228 244.722 178.845 244.394 178.561C244.065 178.276 243.655 178.134 243.163 178.134C242.692 178.134 242.293 178.271 241.964 178.544C241.647 178.818 241.45 179.206 241.373 179.71H244.886ZM245.083 173.669L241.127 175.327V173.39L245.083 171.486V173.669ZM252.046 177.543C252.374 177.04 252.785 176.646 253.277 176.361C253.77 176.066 254.317 175.918 254.919 175.918V178.889H254.147C253.447 178.889 252.922 179.042 252.571 179.349C252.221 179.644 252.046 180.169 252.046 180.924V185.176H249.239V176.017H252.046V177.543ZM257.672 175.064C257.18 175.064 256.775 174.922 256.457 174.638C256.151 174.342 255.998 173.981 255.998 173.554C255.998 173.117 256.151 172.756 256.457 172.471C256.775 172.176 257.18 172.028 257.672 172.028C258.153 172.028 258.547 172.176 258.854 172.471C259.171 172.756 259.33 173.117 259.33 173.554C259.33 173.981 259.171 174.342 258.854 174.638C258.547 174.922 258.153 175.064 257.672 175.064ZM259.067 176.017V185.176H256.26V176.017H259.067ZM269.735 180.448C269.735 180.711 269.719 180.985 269.686 181.269H263.334C263.377 181.838 263.558 182.276 263.875 182.582C264.204 182.878 264.603 183.025 265.074 183.025C265.774 183.025 266.261 182.73 266.534 182.139H269.522C269.369 182.741 269.09 183.283 268.685 183.764C268.291 184.246 267.793 184.623 267.191 184.897C266.589 185.17 265.916 185.307 265.172 185.307C264.275 185.307 263.476 185.116 262.776 184.733C262.075 184.35 261.528 183.802 261.134 183.091C260.74 182.38 260.543 181.548 260.543 180.596C260.543 179.644 260.735 178.812 261.118 178.101C261.512 177.39 262.059 176.843 262.759 176.46C263.46 176.077 264.264 175.885 265.172 175.885C266.058 175.885 266.846 176.071 267.536 176.443C268.225 176.815 268.761 177.346 269.144 178.036C269.538 178.725 269.735 179.529 269.735 180.448ZM266.863 179.71C266.863 179.228 266.699 178.845 266.37 178.561C266.042 178.276 265.632 178.134 265.139 178.134C264.669 178.134 264.269 178.271 263.941 178.544C263.624 178.818 263.427 179.206 263.35 179.71H266.863ZM276.797 175.918C277.869 175.918 278.723 176.268 279.358 176.969C280.003 177.658 280.326 178.61 280.326 179.825V185.176H277.536V180.202C277.536 179.589 277.377 179.113 277.06 178.774C276.742 178.435 276.315 178.265 275.779 178.265C275.243 178.265 274.816 178.435 274.499 178.774C274.182 179.113 274.023 179.589 274.023 180.202V185.176H271.216V176.017H274.023V177.231C274.307 176.826 274.69 176.509 275.172 176.279C275.653 176.038 276.195 175.918 276.797 175.918ZM281.718 180.596C281.718 179.644 281.91 178.812 282.293 178.101C282.687 177.39 283.229 176.843 283.918 176.46C284.618 176.077 285.417 175.885 286.314 175.885C287.464 175.885 288.421 176.186 289.187 176.788C289.964 177.39 290.473 178.238 290.714 179.332H287.726C287.474 178.632 286.987 178.282 286.265 178.282C285.751 178.282 285.341 178.484 285.034 178.889C284.728 179.283 284.575 179.852 284.575 180.596C284.575 181.34 284.728 181.915 285.034 182.32C285.341 182.714 285.751 182.911 286.265 182.911C286.987 182.911 287.474 182.56 287.726 181.86H290.714C290.473 182.932 289.964 183.775 289.187 184.388C288.41 185.001 287.453 185.307 286.314 185.307C285.417 185.307 284.618 185.116 283.918 184.733C283.229 184.35 282.687 183.802 282.293 183.091C281.91 182.38 281.718 181.548 281.718 180.596ZM300.849 180.448C300.849 180.711 300.833 180.985 300.8 181.269H294.447C294.491 181.838 294.672 182.276 294.989 182.582C295.317 182.878 295.717 183.025 296.187 183.025C296.888 183.025 297.375 182.73 297.648 182.139H300.636C300.482 182.741 300.203 183.283 299.798 183.764C299.404 184.246 298.907 184.623 298.305 184.897C297.703 185.17 297.03 185.307 296.286 185.307C295.388 185.307 294.59 185.116 293.889 184.733C293.189 184.35 292.642 183.802 292.248 183.091C291.854 182.38 291.657 181.548 291.657 180.596C291.657 179.644 291.848 178.812 292.231 178.101C292.625 177.39 293.172 176.843 293.873 176.46C294.573 176.077 295.377 175.885 296.286 175.885C297.172 175.885 297.96 176.071 298.649 176.443C299.339 176.815 299.875 177.346 300.258 178.036C300.652 178.725 300.849 179.529 300.849 180.448ZM297.976 179.71C297.976 179.228 297.812 178.845 297.484 178.561C297.156 178.276 296.745 178.134 296.253 178.134C295.782 178.134 295.383 178.271 295.055 178.544C294.737 178.818 294.54 179.206 294.464 179.71H297.976Z" fill="white"/>
<defs>
<filter id="filter0_d_126_816" x="0.195267" y="0.0781078" width="330.59" height="329.609" filterUnits="userSpaceOnUse" color-interpolation-filters="sRGB">
<feFlood flood-opacity="0" result="BackgroundImageFix"/>
<feColorMatrix in="SourceAlpha" type="matrix" values="0 0 0 0 0 0 0 0 0 0 0 0 0 0 0 0 0 0 127 0" result="hardAlpha"/>
<feOffset dx="-82.4024" dy="16.4805"/>
<feGaussianBlur stdDeviation="41.2012"/>
<feColorMatrix type="matrix" values="0 0 0 0 0 0 0 0 0 0 0 0 0 0 0 0 0 0 0.05 0"/>
<feBlend mode="normal" in2="BackgroundImageFix" result="effect1_dropShadow_126_816"/>
<feBlend mode="normal" in="SourceGraphic" in2="effect1_dropShadow_126_816" result="shape"/>
</filter>
<filter id="filter1_d_126_816" x="6.82631" y="6.67064" width="317.328" height="316.425" filterUnits="userSpaceOnUse" color-interpolation-filters="sRGB">
<feFlood flood-opacity="0" result="BackgroundImageFix"/>
<feColorMatrix in="SourceAlpha" type="matrix" values="0 0 0 0 0 0 0 0 0 0 0 0 0 0 0 0 0 0 127 0" result="hardAlpha"/>
<feOffset dx="-82.4024" dy="16.4805"/>
<feGaussianBlur stdDeviation="41.2012"/>
<feColorMatrix type="matrix" values="0 0 0 0 0 0 0 0 0 0 0 0 0 0 0 0 0 0 0.05 0"/>
<feBlend mode="normal" in2="BackgroundImageFix" result="effect1_dropShadow_126_816"/>
<feBlend mode="normal" in="SourceGraphic" in2="effect1_dropShadow_126_816" result="shape"/>
</filter>
<linearGradient id="paint0_linear_126_816" x1="171.631" y1="72.7882" x2="324.154" y2="224.017" gradientUnits="userSpaceOnUse">
<stop stop-color="#58BD7D"/>
<stop offset="1" stop-color="#29573A"/>
</linearGradient>
</defs>
</svg>
