<svg width="149" height="75" viewBox="0 0 149 75" fill="none" xmlns="http://www.w3.org/2000/svg">
<path opacity="0.2" d="M84.7124 33.5672C85.0099 37.3796 84.7984 41.2343 84.0855 44.9933C83.3289 48.721 82.1347 52.3173 80.5371 55.6788C79.0231 58.9931 77.1767 62.0893 75.0376 64.9006C72.9107 67.7219 70.3832 70.0928 67.5706 71.905C66.1494 72.8118 64.6274 73.4758 63.0519 73.8762C61.4191 74.3172 59.7303 74.334 58.1052 73.9255C56.296 73.4459 54.6875 72.2687 53.5361 70.5815C52.3969 68.8188 51.7143 66.7049 51.5676 64.4848C51.4793 63.4514 51.4635 62.4096 51.5205 61.3699C51.6018 60.3776 51.7273 59.3898 51.8966 58.4108C52.0575 57.4688 52.2704 56.5388 52.5341 55.6267L52.9042 54.2016L53.3413 52.8962C54.5045 49.5958 55.9371 46.4293 57.6189 43.4416C59.2328 40.4881 61.1919 37.8089 63.4378 35.4839C65.5695 33.2808 67.9574 31.4452 70.5267 30.0344L71.4482 29.511L72.4004 29.0907C73.023 28.8098 73.671 28.5159 74.2795 28.2631C75.5223 27.7808 76.7844 27.3737 78.0608 27.0435C78.8013 26.8566 79.5514 26.7136 80.3016 26.5707C80.1014 25.7914 79.8713 25.0973 79.6367 24.2725C78.6692 21.2791 77.3592 18.4591 75.7421 15.8886C74.1668 13.4516 72.2783 11.317 70.1418 9.55858C65.9705 6.34828 61.2134 4.29977 56.2279 3.56701C51.5558 2.88437 46.8127 2.96876 42.1355 3.81773C37.8503 4.57823 33.6181 5.74145 29.4801 7.29604C25.8408 8.61355 22.2762 10.2121 18.8099 12.0809C13.7163 14.7903 9.02035 18.4482 4.90807 22.9096C2.0043 26.1795 0.681284 28.4447 0.546547 28.2195C0.736765 27.5994 1.01405 27.0192 1.36684 26.503C2.26113 24.9629 3.254 23.5033 4.33667 22.137C8.30901 17.2902 12.9735 13.2925 18.112 10.3309C21.5997 8.26826 25.2007 6.48785 28.8891 5.00238C33.0984 3.26175 37.416 1.92442 41.7984 1.0038C46.6761 -0.0292971 51.6412 -0.251489 56.5457 0.343849C61.9594 0.990524 67.1489 3.09137 71.7114 6.48323C74.1416 8.39614 76.2973 10.7427 78.102 13.4399C79.9591 16.2812 81.4671 19.4164 82.5831 22.7566C82.9814 23.9006 83.3235 25.0714 83.6077 26.2633C86.5121 26.0068 89.4253 26.0564 92.3121 26.4116C99.9845 27.4329 107.465 29.7762 114.51 33.3656C119.632 35.9246 124.562 38.9662 129.251 42.4612C134.472 46.2861 139.316 50.7661 143.697 55.8234L145.007 57.4656L144.615 55.3577C144.245 53.0774 143.997 50.8478 143.779 48.7213C143.438 44.9524 143.345 41.153 143.5 37.3564C143.768 30.859 144.67 26.9618 145.112 27.0174C145.553 27.0729 145.575 31.0113 145.907 37.1975C146.103 40.3069 146.363 43.9847 146.899 48.012C147.16 50.0397 147.478 52.1432 147.867 54.2944C148.074 55.378 148.28 56.476 148.51 57.5755C148.625 58.1324 148.756 58.618 148.879 59.4505C149.064 60.534 148.939 61.6651 148.524 62.6714C148.292 63.2042 147.969 63.6774 147.575 64.0617C147.263 64.3573 146.92 64.6043 146.555 64.7963C146.009 65.0635 145.442 65.2622 144.863 65.3891C143.947 65.6233 143.032 65.8288 142.141 66.0501C140.349 66.4631 138.621 66.8367 136.968 67.1858C133.667 67.8263 130.724 68.2569 128.159 68.5655C123.181 69.134 120.01 69.0586 119.958 68.4765C119.907 67.8944 122.959 66.877 127.873 65.5231L136.501 63.2495C138.125 62.8263 139.82 62.3784 141.587 61.9059C142.467 61.6694 143.371 61.4344 144.275 61.1994C144.3 61.1946 144.325 61.1961 144.349 61.2039C143.737 60.6893 142.893 59.9292 141.726 58.7878C137.146 54.3968 132.319 50.3682 127.276 46.7279C122.689 43.4956 117.904 40.6579 112.956 38.2368C106.237 34.8862 99.123 32.688 91.8321 31.7093C89.4169 31.4235 86.9827 31.3591 84.5517 31.5166C84.634 32.2019 84.7163 32.8871 84.774 33.5709L84.7124 33.5672ZM78.7525 32.3829C77.6183 32.6566 76.4961 32.9997 75.3906 33.4107C74.8463 33.6239 74.2994 33.8805 73.741 34.1218L72.9153 34.4918L72.1091 34.9498C69.8897 36.1332 67.8289 37.6973 65.9959 39.5896C64.0461 41.581 62.3428 43.881 60.9371 46.4207C59.4013 49.0844 58.0922 51.9147 57.029 54.8699L56.6402 55.99L56.3252 57.1145C56.1132 57.855 55.9358 58.6078 55.7938 59.3695C55.6246 60.1264 55.596 60.805 55.4849 61.6234C55.4401 62.3384 55.4464 63.0553 55.504 63.7668C55.5033 65.0025 55.852 66.196 56.4957 67.1616C57.1394 68.1271 58.042 68.8105 59.0631 69.1053C61.4661 69.5477 63.9417 68.9958 66.066 67.5443C68.4815 66.0204 70.6597 64.021 72.5029 61.6358C74.4484 59.1288 76.1338 56.3632 77.5229 53.3984C78.9722 50.4593 80.0652 47.3045 80.7697 44.0263C81.4126 40.7417 81.6158 37.3697 81.3721 34.0317C81.3294 33.3054 81.262 32.5776 81.1815 31.8635C80.3574 32.002 79.5448 32.1557 78.6803 32.3496" fill="#5B1727"/>
</svg>

