<svg width="52" height="52" viewBox="0 0 52 52" fill="none" xmlns="http://www.w3.org/2000/svg">
<rect x="2.00253" y="2.19653" width="47.801" height="47.801" rx="23.9005" fill="#58BD7D"/>
<rect x="1.11733" y="1.31133" width="49.5714" height="49.5714" rx="24.7857" stroke="#58BD7D" stroke-opacity="0.28" stroke-width="1.77041"/>
<path d="M33.2251 30.3266V20.2769C33.2251 20.0719 33.1437 19.8753 32.9987 19.7303C32.8537 19.5853 32.6571 19.5039 32.4521 19.5039H22.4024C22.1974 19.5039 22.0008 19.5853 21.8558 19.7303C21.7108 19.8753 21.6294 20.0719 21.6294 20.2769C21.6294 20.482 21.7108 20.6786 21.8558 20.8236C22.0008 20.9685 22.1974 21.05 22.4024 21.05H30.5861L19.5364 32.0988C19.3913 32.2438 19.3098 32.4406 19.3098 32.6457C19.3098 32.8509 19.3913 33.0476 19.5364 33.1926C19.6814 33.3377 19.8782 33.4192 20.0833 33.4192C20.2884 33.4192 20.4852 33.3377 20.6302 33.1926L31.679 22.1429V30.3266C31.679 30.5316 31.7605 30.7282 31.9054 30.8732C32.0504 31.0182 32.247 31.0996 32.4521 31.0996C32.6571 31.0996 32.8537 31.0182 32.9987 30.8732C33.1437 30.7282 33.2251 30.5316 33.2251 30.3266Z" fill="white"/>
<path d="M20.0833 33.3674C20.2746 33.3674 20.4587 33.2908 20.594 33.1555L31.6418 22.1057L31.7307 22.0178V30.3264C31.7307 30.5177 31.8074 30.7009 31.9426 30.8362C32.0779 30.9714 32.2612 31.0481 32.4524 31.0481C32.6435 31.048 32.827 30.9713 32.9622 30.8362C33.0973 30.701 33.1731 30.5176 33.1731 30.3264V20.2766C33.173 20.0855 33.0973 19.902 32.9622 19.7668C32.827 19.6317 32.6435 19.556 32.4524 19.5559H22.4026C22.2114 19.5559 22.028 19.6317 21.8928 19.7668C21.7577 19.902 21.681 20.0855 21.6809 20.2766C21.6809 20.4678 21.7576 20.6511 21.8928 20.7864C22.0281 20.9216 22.2113 20.9983 22.4026 20.9983H30.7112L30.6233 21.0872L19.5735 32.135C19.4382 32.2703 19.3616 32.4544 19.3616 32.6458C19.3616 32.8371 19.4382 33.0202 19.5735 33.1555C19.7088 33.2908 19.8919 33.3674 20.0833 33.3674Z" stroke="#58BD7D" stroke-opacity="0.28" stroke-width="0.103789"/>
</svg>
