<svg width="17" height="17" viewBox="0 0 17 17" fill="none" xmlns="http://www.w3.org/2000/svg">
<path d="M16.2716 12.7778V1.4249C16.2716 1.19328 16.1796 0.971154 16.0158 0.807379C15.852 0.643603 15.6299 0.551596 15.3983 0.551596H4.04538C3.81377 0.551596 3.59164 0.643603 3.42787 0.807379C3.26409 0.971154 3.17208 1.19328 3.17208 1.4249C3.17208 1.65651 3.26409 1.87864 3.42787 2.04241C3.59164 2.20619 3.81377 2.2982 4.04538 2.2982H13.2904L0.807623 14.7798C0.643756 14.9437 0.551697 15.166 0.551697 15.3977C0.551697 15.6294 0.643756 15.8517 0.807623 16.0156C0.971489 16.1794 1.19374 16.2715 1.42548 16.2715C1.65722 16.2715 1.87948 16.1794 2.04334 16.0156L14.525 3.53282V12.7778C14.525 13.0094 14.617 13.2315 14.7808 13.3953C14.9445 13.5591 15.1667 13.6511 15.3983 13.6511C15.6299 13.6511 15.852 13.5591 16.0158 13.3953C16.1796 13.2315 16.2716 13.0094 16.2716 12.7778Z" fill="#58BD7D"/>
</svg>
