<svg width="45" height="43" viewBox="0 0 45 43" fill="none" xmlns="http://www.w3.org/2000/svg">
<path opacity="0.4" d="M19.3168 0.951137C20.8409 -0.317046 23.337 -0.317046 24.8832 0.951137L28.3732 3.87441C29.0359 4.43327 30.2729 4.88465 31.1564 4.88465H34.9116C37.253 4.88465 39.1747 6.75469 39.1747 9.03312V12.6872C39.1747 13.5255 39.6386 14.7507 40.2129 15.3955L43.217 18.7917C44.5203 20.2748 44.5203 22.7037 43.217 24.2083L40.2129 27.6045C39.6386 28.2493 39.1747 29.453 39.1747 30.3128V33.9669C39.1747 36.2453 37.253 38.1153 34.9116 38.1153H31.1564C30.295 38.1153 29.0359 38.5667 28.3732 39.1256L24.8832 42.0489C23.3591 43.317 20.863 43.317 19.3168 42.0489L15.8267 39.1256C15.1641 38.5667 13.9271 38.1153 13.0435 38.1153H9.22213C6.8807 38.1153 4.95897 36.2453 4.95897 33.9669V30.2913C4.95897 29.453 4.4951 28.2493 3.94288 27.6045L0.960869 24.1868C-0.32029 22.7037 -0.32029 20.2963 0.960869 18.8132L3.94288 15.3955C4.4951 14.7507 4.95897 13.547 4.95897 12.7087V9.01162C4.95897 6.73319 6.8807 4.86316 9.22213 4.86316H13.0435C13.905 4.86316 15.1641 4.41177 15.8267 3.85291L19.3168 0.951137Z" fill="white"/>
</svg>
