<svg width="57" height="40" viewBox="0 0 57 40" fill="none" xmlns="http://www.w3.org/2000/svg">
<path opacity="0.8" d="M20.8172 14.1901H16.8804C18.7219 8.99056 20.2943 6.50049 25.5264 4.37465C26.3997 4.0197 26.8936 3.11357 26.7076 2.20918C26.5218 1.30653 25.7085 0.657135 24.7634 0.657135H24.7595C13.844 0.676081 7.57405 4.94284 3.12809 15.372C1.70896 18.6477 0.988586 22.1535 0.988586 25.7898C0.988586 31.3821 2.72359 34.4274 5.36872 38.4355C5.73277 38.9886 6.36213 39.3228 7.0359 39.3228H20.8172C24.0974 39.3228 26.7657 36.7212 26.7657 33.523V19.99C26.7657 16.7918 24.0974 14.1901 20.8172 14.1901ZM50.56 14.1901H46.6233C48.4647 8.99056 50.0371 6.50049 55.2693 4.37465C56.1426 4.0197 56.6365 3.11357 56.4505 2.20918C56.2647 1.30653 55.4513 0.657135 54.5063 0.657135H54.5023C43.5869 0.676081 37.3169 4.94284 32.8709 15.372C31.4518 18.6477 30.7314 22.1535 30.7314 25.7898C30.7314 31.3821 32.4664 34.4274 35.1116 38.4355C35.4756 38.9886 36.105 39.3228 36.7788 39.3228H50.56C53.8403 39.3228 56.5086 36.7212 56.5086 33.523V19.99C56.5086 16.7918 53.8403 14.1901 50.56 14.1901Z" fill="#58BD7D"/>
</svg>
