<svg width="56" height="40" viewBox="0 0 56 40" fill="none" xmlns="http://www.w3.org/2000/svg">
<path d="M20.1485 14.1901H16.2118C18.0532 8.99056 19.6256 6.50049 24.8578 4.37465C25.7311 4.0197 26.225 3.11357 26.039 2.20918C25.8532 1.30653 25.0398 0.657135 24.0948 0.657135H24.0908C13.1754 0.676081 6.90541 4.94284 2.45945 15.372C1.04032 18.6477 0.319946 22.1535 0.319946 25.7898C0.319946 31.3821 2.05495 34.4274 4.70008 38.4355C5.06413 38.9886 5.69349 39.3228 6.36726 39.3228H20.1485C23.4288 39.3228 26.0971 36.7212 26.0971 33.523V19.99C26.0971 16.7918 23.4288 14.1901 20.1485 14.1901ZM49.8914 14.1901H45.9546C47.7961 8.99056 49.3685 6.50049 54.6007 4.37465C55.4739 4.0197 55.9678 3.11357 55.7818 2.20918C55.5961 1.30653 54.7827 0.657135 53.8377 0.657135H53.8337C42.9183 0.676081 36.6483 4.94284 32.2023 15.372C30.7832 18.6477 30.0628 22.1535 30.0628 25.7898C30.0628 31.3821 31.7978 34.4274 34.4429 38.4355C34.807 38.9886 35.4363 39.3228 36.1101 39.3228H49.8914C53.1716 39.3228 55.8399 36.7212 55.8399 33.523V19.99C55.8399 16.7918 53.1716 14.1901 49.8914 14.1901Z" fill="white"/>
</svg>
