<svg width="52" height="52" viewBox="0 0 52 52" fill="none" xmlns="http://www.w3.org/2000/svg">
<path d="M43.3019 0H8.01887C3.59017 0 0 3.59017 0 8.01887V43.3019C0 47.7306 3.59017 51.3208 8.01887 51.3208H43.3019C47.7306 51.3208 51.3208 47.7306 51.3208 43.3019V8.01887C51.3208 3.59017 47.7306 0 43.3019 0Z" fill="white"/>
<path d="M42.1603 25.6602C42.1603 16.5852 34.7353 9.16016 25.6603 9.16016C16.5853 9.16016 9.16034 16.5852 9.16034 25.6602C9.16034 33.9102 15.1416 40.7164 22.9791 41.9539V30.4039H18.8541V25.6602H22.9791V21.9477C22.9791 17.8227 25.4541 15.5539 29.1666 15.5539C31.0228 15.5539 32.8791 15.9664 32.8791 15.9664V20.0914H30.8166C28.7541 20.0914 28.1353 21.3289 28.1353 22.5664V25.6602H32.6728L31.8478 30.4039H27.9291V42.1602C36.1791 40.9227 42.1603 33.9102 42.1603 25.6602Z" fill="#58BD7D"/>
</svg>
